<!-- Created with Inkscape (http://www.inkscape.org/) -->
<svg xmlns="http://www.w3.org/2000/svg" height="72" width="245" 
     version="1.1">
 <defs>
  <linearGradient id="lG3082" y2="97.491997" gradientUnits="userSpaceOnUse" x2="98.819" gradientTransform="matrix(0.47013033,0,0,0.48220731,-14.020292,-14.550671)" y1="160.69" x1="155.12">
   <stop stop-color="#FF0" offset="0"/>
   <stop stop-color="#FFF" offset="1"/>
  </linearGradient>
  <linearGradient id="lG3085" y2="45.785" gradientUnits="userSpaceOnUse" x2="165.46001" gradientTransform="matrix(0.47013033,0,0,0.48220731,-14.020292,-14.550671)" y1="46.933998" x1="36.77">
   <stop stop-color="#FFF" offset="0"/>
   <stop stop-color="#FFF" stop-opacity="0" offset="1"/>
  </linearGradient>
  <linearGradient id="lG3088" y2="46.933998" gradientUnits="userSpaceOnUse" x2="47.111" gradientTransform="matrix(0.47013033,0,0,0.48220731,-14.020292,-14.550671)" y1="173.33" x1="47.111">
   <stop stop-color="#4d4d4d" offset="0"/>
   <stop stop-color="#4d4d4d" stop-opacity="0" offset="1"/>
  </linearGradient>
 </defs>
 <g transform="translate(0,0.28568464)">
  <g transform="matrix(0.58766291,0,0,-0.60275914,86.993377,22.063166)">
   <path d="m0,0c-0.129,4.144-0.323,8.302-0.579,12.479,1.093-0.129,2.28-0.241,3.566-0.337,1.285-0.096,2.73-0.145,4.336-0.145,2.121,0,4.496,0.08,7.131,0.241,2.634,0.16,6.071,0.241,10.31,0.241,5.524,0,10.552-0.499,15.081-1.494s8.43-2.683,11.708-5.059c3.276-2.377,5.817-5.573,7.611-9.588,1.8-4.015,2.701-9.072,2.701-15.177,0-5.33-0.885-10.148-2.65-14.453-1.768-4.303-4.178-7.983-7.23-11.033-3.052-3.052-6.584-5.382-10.599-6.988s-8.303-2.409-12.863-2.409c-4.819,0-8.931,0.035-12.334,0.098-3.406,0.064-6.36,0.101-8.866,0.101h-4.336c-1.286,0-2.473-0.067-3.566-0.199,0.256,3.985,0.45,8.049,0.579,12.193,0.127,4.146,0.192,8.881,0.192,14.214v13.103c0,5.331-0.065,10.07-0.192,14.212m14.454-34.352,0-5.783c0-1.862,0.015-3.563,0.046-5.105,0.034-1.541,0.05-2.538,0.05-2.989,0.964-0.064,2.12-0.128,3.471-0.191,1.349-0.064,3.018-0.097,5.009-0.097,7.258,0,13.009,2.473,17.249,7.419,4.239,4.948,6.358,12.429,6.358,22.452,0,3.982-0.529,7.549-1.589,10.696s-2.554,5.831-4.48,8.049c-1.926,2.214-4.24,3.916-6.937,5.106-2.7,1.188-5.72,1.782-9.06,1.782-2.312,0-4.19-0.049-5.637-0.144-1.444-0.098-2.907-0.21-4.384-0.339,0-0.45-0.016-1.443-0.05-2.986-0.031-1.542-0.046-3.277-0.046-5.204v-32.666z" fill-rule="nonzero" fill="#FFF"/>
  </g>
  <g transform="matrix(0.58766291,0,0,-0.60275914,142.25779,39.777428)">
   <path d="m0,0c0.96,2.536,1.881,4.995,2.744,7.369,0.872,2.376,1.703,4.756,2.51,7.133,0.8,2.376,1.617,4.881,2.457,7.516,0.702-0.13,1.361-0.241,1.971-0.337,0.613-0.097,1.243-0.146,1.883-0.146,0.639,0,1.286,0.049,1.927,0.146,0.64,0.096,1.348,0.207,2.118,0.337-0.323-0.836-1.075-2.619-2.262-5.349-1.193-2.73-2.635-6.103-4.337-10.117-1.704-4.016-3.584-8.462-5.639-13.345-2.057-4.881-4.126-9.816-6.215-14.792-2.088-4.979-4.115-9.91-6.073-14.793-1.958-4.878-3.676-9.314-5.151-13.299-0.71,0.131-1.384,0.24-2.022,0.34-0.644,0.099-1.319,0.144-2.025,0.144-0.708,0-1.385-0.045-2.026-0.144-0.642-0.1-1.318-0.209-2.021-0.34,2.118,4.241,4.203,8.432,6.26,12.579,2.058,4.143,4.049,8.33,5.976,12.577-1.542,3.66-3.26,7.799-5.155,12.427-1.896,4.627-3.757,9.155-5.588,13.587-1.833,4.435-3.505,8.479-5.013,12.14-1.506,3.663-2.651,6.457-3.421,8.385,1.221-0.13,2.423-0.241,3.614-0.337,1.19-0.097,2.392-0.146,3.614-0.146,1.219,0,2.408,0.049,3.565,0.146,1.159,0.096,2.345,0.207,3.564,0.337,1.864-5.075,3.743-10.117,5.638-15.13,1.896-5.011,3.872-10.055,5.924-15.125,1.161,2.956,2.217,5.698,3.183,8.237" fill-rule="nonzero" fill="#FFF"/>
  </g>
  <g transform="matrix(0.58766291,0,0,-0.60275914,162.4989,30.86234)">
   <path d="m0,0c1.802,2.698,3.902,4.785,6.314,6.264,2.406,1.476,5.153,2.215,8.241,2.215,4.818,0,8.528-1.396,11.132-4.191,2.596-2.794,3.897-7.308,3.897-13.536,0-3.276-0.063-6.169-0.192-8.674-0.132-2.505-0.193-5.01-0.193-7.515,0-2.057,0.049-4.29,0.149-6.696,0.092-2.413,0.206-4.742,0.336-6.991-0.839,0.132-1.897,0.199-3.182,0.199h-8.093c-1.287,0-2.348-0.067-3.184-0.199,0.448,3.34,0.741,7.275,0.873,11.808,0.122,4.527,0.186,9.713,0.186,15.563,0,4.045-0.691,7.016-2.07,8.912-1.38,1.892-3.32,2.841-5.83,2.841-2.89,0-5.01-1.252-6.359-3.759-1.349-2.505-2.025-5.97-2.025-10.404v-3.855c0-3.92,0.048-7.611,0.147-11.082,0.094-3.468,0.305-6.809,0.628-10.024-0.839,0.132-1.882,0.199-3.137,0.199h-8.144c-1.218,0-2.281-0.067-3.176-0.199,0.32,3.215,0.53,6.556,0.628,10.024,0.095,3.471,0.145,7.162,0.145,11.082v3.855c0,3.917-0.05,7.596-0.145,11.032-0.098,3.436-0.308,6.89-0.628,10.358,1.157-0.129,2.301-0.241,3.419-0.337,1.127-0.097,2.269-0.146,3.426-0.146,1.154,0,2.292,0.049,3.418,0.146,1.125,0.096,2.324,0.208,3.618,0.337l-0.386-7.227h0.187z" fill-rule="nonzero" fill="#FFF"/>
  </g>
  <g transform="matrix(0.58766291,0,0,-0.60275914,-6.9471808,79.594877)">
   <g transform="translate(305.2988,31.7803)">
    <path d="m0,0c0.361-0.247,0.863-0.419,1.391-0.419,0.96,0,1.544,0.542,1.544,1.328,0,0.707-0.369,1.137-1.294,1.486-1.026,0.37-1.641,0.901-1.641,1.761,0,0.94,0.766,1.623,1.857,1.623,0.598,0,1.052-0.152,1.269-0.297l-0.173-0.386c-0.169,0.124-0.577,0.3-1.125,0.3-1.032,0-1.386-0.661-1.386-1.162,0-0.703,0.41-1.062,1.329-1.421,1.052-0.428,1.611-0.909,1.611-1.859,0-0.928-0.665-1.75-2.025-1.75-0.552,0-1.195,0.179-1.53,0.426l0.173,0.37z" fill-rule="nonzero" fill="#FFF"/>
   </g>
   <g transform="translate(315.2803,34.0996)">
    <path d="M0,0c-0.055,0.957-0.13,2.133-0.13,2.831h-0.023c-0.236-0.688-0.493-1.429-0.86-2.386l-1.345-3.465h-0.313l-1.262,3.389c-0.36,0.995-0.634,1.764-0.82,2.462h-0.019c-0.018-0.745-0.068-1.854-0.143-2.915l-0.199-2.936h-0.447l0.465,6.384h0.522l1.375-3.686c0.298-0.805,0.515-1.449,0.701-2.064h0.026c0.161,0.586,0.39,1.203,0.708,2.064l1.428,3.686h0.543l0.428-6.384h-0.447l-0.188,3.02z" fill-rule="nonzero" fill="#FFF"/>
   </g>
  </g>
 </g>
 <g fill-rule="nonzero" transform="translate(0,0.28568464)">
  <path d="M56.156067,63.471118c-50.5578153,29.067457-82.385639-46.868622-27.109125-62.2047431-27.6676399,19.4286151-13.920089,66.3613701,27.109125,62.2047431z" fill="url(#lG3088)"/>
  <path d="M3.7290135,19.431124c31.5941685-48.606497,94.9522225,4.675,52.8238435,43.190345,15.674146-29.740136-18.222251-65.3390909-52.8238435-43.18938z" fill="url(#lG3085)"/>
  <path d="M55.775262,7.2409235c47.097658,35.6365665-13.459832,93.5578665-49.2179444,48.3991475,29.1513714,18.184038,68.8411844-12.161268,49.2179444-48.3991475z" fill="url(#lG3082)"/>
 </g>
 <g transform="translate(0,0.28568464)" stroke="#FF0" stroke-miterlimit="4" stroke-dasharray="none" stroke-width="0.60000002" fill="#FF0">
  <path d="m209.55809,32.239728,0-7.748064,2.60217,0c0.58741,0.000007,1.03571,0.037,1.34489,0.110985,0.43282,0.102183,0.80211,0.287169,1.10785,0.554942,0.39847,0.345306,0.69561,0.787499,0.89143,1.32658,0.19924,0.535569,0.29885,1.148649,0.29886,1.83924-0.00001,0.588419-0.067,1.109889-0.20096,1.564411-0.13397,0.454528-0.30574,0.831536-0.51528,1.131028-0.20956,0.29597-0.43972,0.53028-0.69048,0.702928-0.24733,0.169126-0.54792,0.297731-0.90173,0.385817-0.3504,0.08808-0.75404,0.132129-1.21091,0.132129h-2.72584m0.99964-0.914335,1.61284,0c0.49809,0.000001,0.88799-0.04756,1.16968-0.142699,0.28512-0.09514,0.51184-0.229023,0.68017-0.401673,0.23702-0.243117,0.42081-0.569036,0.55136-0.977757,0.13396-0.412241,0.20095-0.910809,0.20095-1.495704,0-0.810389-0.13054-1.432278-0.39161-1.865667-0.25765-0.436901-0.57197-0.729347-0.94296-0.877339-0.26796-0.105699-0.69907-0.158548-1.29336-0.158555h-1.58707v5.919394"/>
  <path d="m217.56972,32.239728,0-7.748064,1.02541,0,3.96767,6.083235,0-6.083235,0.95841,0,0,7.748064-1.0254,0-3.96766-6.08852,0,6.08852-0.95843,0"/>
  <path d="m224.8661,29.750412,0.94296-0.08457c0.0447,0.387582,0.14771,0.706454,0.30917,0.956616,0.16488,0.246643,0.4191,0.44748,0.76261,0.60251,0.34352,0.15151,0.72998,0.227263,1.15939,0.227263,0.3813,0,0.71795-0.05814,1.00994-0.174411s0.50842-0.274828,0.64926-0.475665c0.14427-0.204359,0.21641-0.426336,0.21642-0.665932-0.00001-0.243116-0.0687-0.454522-0.20612-0.634222-0.13741-0.183215-0.36413-0.336486-0.68016-0.459809-0.20269-0.08104-0.65097-0.206118-1.34489-0.375248-0.69392-0.172645-1.17999-0.334723-1.45825-0.486236-0.36069-0.193786-0.63035-0.43338-0.80899-0.718783-0.17519-0.288919-0.26279-0.611313-0.26279-0.967187,0-0.391097,0.10817-0.755773,0.32463-1.094031,0.21642-0.341768,0.53246-0.60074,0.94811-0.776921,0.41566-0.176164,0.8777-0.26425,1.38611-0.264259,0.55994,0.000009,1.05288,0.09338,1.47886,0.280115,0.4294,0.183226,0.75917,0.454532,0.98934,0.813917,0.23014,0.359398,0.35381,0.766356,0.371,1.220875l-0.95843,0.07399c-0.0515-0.489754-0.22673-0.859716-0.52558-1.109887-0.29543-0.250158-0.73342-0.37524-1.31396-0.375248-0.6046,0.000008-1.04603,0.114526-1.32427,0.343537-0.27483,0.225507-0.41223,0.498574-0.41223,0.819202,0,0.278358,0.0979,0.507381,0.2937,0.687072,0.19238,0.179701,0.69392,0.364682,1.50463,0.554944,0.81414,0.186747,1.37236,0.350586,1.67466,0.491521,0.4397,0.207887,0.76433,0.472146,0.97388,0.792776,0.20954,0.317113,0.31432,0.683551,0.31432,1.099316,0,0.412246-0.11512,0.801585-0.34523,1.168024-0.23017,0.362916-0.56167,0.646552-0.99449,0.850913-0.42941,0.200836-0.91377,0.301254-1.4531,0.301254-0.6836,0-1.25728-0.102183-1.72104-0.306539-0.46032-0.204361-0.82272-0.5109-1.08723-0.919621-0.26108-0.412243-0.3985-0.877337-0.41223-1.395286"/>
 </g>
 <g transform="translate(0,0.28568464)" stroke="#FF0" stroke-miterlimit="4" stroke-dasharray="none" stroke-width="0.60000002" fill="#FF0">
  <path d="m209.5787,44.579121,0-7.748064,5.46198,0,0,0.914335-4.46233,0,0,2.373042,4.17893,0,0,0.90905-4.17893,0,0,2.637302,4.63752,0,0,0.914335-5.63717,0"/>
  <path d="m216.76282,44.579121,0-7.748064,1.50461,0,1.78803,5.486009c0.16489,0.510902,0.28512,0.893197,0.3607,1.146883,0.0858-0.281874,0.21985-0.695879,0.40192-1.242015l1.80863-5.390877h1.34489v7.748064h-0.96358v-6.484907l-2.19509,6.484907h-0.90175l-2.18479-6.595896v6.595896h-0.96357"/>
  <path d="m225.29284,44.579121,2.90103-7.748064,1.07694,0,3.09168,7.748064-1.13877,0-0.88113-2.346617-3.15867,0-0.82961,2.346617-1.06147,0m2.17964-3.181674,2.56094,0-0.78838-2.145781c-0.24047-0.651832-0.4191-1.187396-0.53589-1.606693-0.0962,0.496813-0.23188,0.990095-0.40708,1.479849l-0.82959,2.272625"/>
  <path d="m233.60538,44.579121,0-7.748064,0.99964,0,0,7.748064-0.99964,0"/>
  <path d="m236.98055,44.579121,0-7.748064,0.99964,0,0,6.833729,3.72033,0,0,0.914335-4.71997,0"/>
 </g>
 <g transform="translate(0,0.28568464)" stroke="#FF0" stroke-miterlimit="4" stroke-dasharray="none" stroke-width="0.60000002" fill="#FF0">
  <path d="m209.51687,56.918539,0-7.748065,0.99964,0,0,6.83373,3.72033,0,0,0.914335-4.71997,0"/>
  <path d="m215.31701,56.918539,2.90103-7.748065,1.07694,0,3.09168,7.748065-1.13877,0-0.88113-2.346617-3.15867,0-0.82961,2.346617-1.06147,0m2.17963-3.181674,2.56095,0-0.78838-2.145781c-0.24047-0.651832-0.4191-1.187396-0.53589-1.606693-0.0962,0.496812-0.23188,0.990096-0.40707,1.479848l-0.82961,2.272626"/>
  <path d="m223.28636,56.918539,0-7.748065,2.83403,0c0.57712,0.000008,1.03915,0.07928,1.38611,0.237833,0.35038,0.155039,0.62349,0.396395,0.81929,0.724069,0.19924,0.324164,0.29886,0.664176,0.29887,1.020039-0.00001,0.33121-0.0875,0.643034-0.26279,0.935476-0.17521,0.29245-0.43971,0.528521-0.79354,0.708213,0.45688,0.137418,0.80728,0.371728,1.05118,0.702928,0.24732,0.331207,0.37099,0.72231,0.371,1.173309-0.00001,0.362917-0.0756,0.701167-0.22673,1.014752-0.14771,0.310064-0.3315,0.549659-0.55135,0.718785-0.21985,0.169125-0.49639,0.297731-0.8296,0.385817-0.32978,0.08457-0.73513,0.126844-1.21605,0.126844h-2.88042m0.99964-4.492398,1.63344,0c0.44313,0.000005,0.76089-0.02995,0.95327-0.08985,0.25419-0.07751,0.44485-0.206117,0.57195-0.385818,0.13054-0.179691,0.19581-0.405191,0.19581-0.676502,0-0.257206-0.0601-0.482706-0.18035-0.676502-0.12023-0.197307-0.29199-0.331198-0.51528-0.401674-0.22329-0.07398-0.60631-0.110985-1.14907-0.110985h-1.50977v2.341332m0,3.578063,1.88078,0c0.3229,0.000001,0.54962-0.01233,0.68016-0.03699,0.23016-0.04228,0.42253-0.112756,0.57712-0.211408,0.15458-0.09866,0.28167-0.241355,0.38131-0.428099,0.0996-0.190264,0.14942-0.408717,0.14942-0.655361,0-0.28892-0.0721-0.539085-0.21641-0.750495-0.14428-0.214928-0.34524-0.364674-0.60288-0.449239-0.25421-0.08808-0.62178-0.132127-1.1027-0.13213h-1.7468v2.663728"/>
  <path d="m229.9046,54.429222,0.94297-0.08457c0.0447,0.387582,0.14771,0.706454,0.30916,0.956617,0.16489,0.246644,0.41909,0.447479,0.76262,0.602509,0.34352,0.15151,0.72998,0.227264,1.15938,0.227263,0.3813,0.000001,0.71795-0.05814,1.00995-0.174411,0.29199-0.116271,0.5084-0.274827,0.64925-0.475665,0.14427-0.204358,0.21642-0.426335,0.21643-0.665932-0.00001-0.243116-0.0687-0.454522-0.20612-0.63422-0.13741-0.183217-0.36413-0.336487-0.68017-0.459811-0.20268-0.08104-0.65098-0.206118-1.34488-0.375247-0.69392-0.172645-1.17999-0.334724-1.45825-0.486236-0.36069-0.193785-0.63036-0.43338-0.80899-0.718784-0.17519-0.288917-0.26279-0.611313-0.26279-0.967186,0-0.391097,0.10817-0.755774,0.32462-1.094032,0.21643-0.341766,0.53246-0.60074,0.94812-0.77692,0.41566-0.176165,0.87769-0.264251,1.38611-0.264258,0.55993,0.000007,1.05288,0.09338,1.47885,0.280113,0.4294,0.183228,0.75917,0.454533,0.98934,0.813917,0.23015,0.359399,0.35382,0.766356,0.371,1.220876l-0.95842,0.07399c-0.0515-0.489752-0.22673-0.859715-0.52559-1.109887-0.29543-0.250157-0.73342-0.37524-1.31396-0.375246-0.6046,0.000006-1.04602,0.114513-1.32428,0.343536-0.27481,0.225507-0.41222,0.498574-0.41222,0.819202,0,0.278357,0.0979,0.507382,0.29371,0.687073,0.19237,0.1797,0.69392,0.364681,1.50462,0.554942,0.81414,0.186747,1.37236,0.350588,1.67467,0.491522,0.4397,0.207888,0.76432,0.472145,0.97387,0.792776,0.20955,0.317113,0.31432,0.683552,0.31432,1.099316,0,0.412245-0.11512,0.801586-0.34523,1.168023-0.23017,0.362916-0.56167,0.646554-0.99449,0.850913-0.4294,0.200837-0.91378,0.301255-1.45309,0.301256-0.68361-0.000001-1.2573-0.102183-1.72104-0.306541-0.46032-0.20436-0.82274-0.5109-1.08725-0.91962-0.26107-0.412242-0.39848-0.877337-0.41222-1.395286"/>
 </g>
 <g stroke-miterlimit="4" stroke-dasharray="none" transform="translate(0,0.28568464)">
  <g transform="matrix(0.58766291,0,0,-0.60275914,197.69963,60.884172)" stroke-width="1.68021154">
   <path stroke-linejoin="miter" d="m0,0c1.099,0,1.988,0.887,1.988,1.988,0,1.097-0.889,1.99-1.988,1.99-1.096,0-1.992-0.893-1.992-1.99,0-1.101,0.896-1.988,1.992-1.988zm0,60.581c1.099,0,1.988,0.892,1.988,1.989,0,1.098-0.889,1.989-1.988,1.989-1.096,0-1.992-0.891-1.992-1.989,0-1.097,0.896-1.989,1.992-1.989zm0-56.603" stroke="#4f4c4d" stroke-linecap="butt" stroke-miterlimit="4" stroke-dasharray="none" stroke-width="1.68021154" fill="none"/>
  </g>
  <path stroke-linejoin="miter" d="m197.72359,24.455724,0,33.905443" stroke="#4d4d4d" stroke-linecap="butt" stroke-width="1.60000002" fill="#999"/>
 </g>
</svg>
