<?xml version="1.0" encoding="UTF-8" standalone="no"?>
<svg
   xmlns="http://www.w3.org/2000/svg"
   version="1.1">
  <g>
    <path
       d="m 19.972358,47.758189 7.54725,-14.993628 0.0043,-13.999624 8.184498,0 -0.01755,13.677694 7.93873,15.400103 C 41.321778,49.902479 21.91188,49.989728 19.972358,47.758189 z M 38.289266,31.656712 38.284566,19.01003 c 0,0 2.498466,-0.184056 2.498466,-2.892236 0,-2.70737 -2.866849,-2.306577 -2.866849,-2.306577 l -12.582404,0 c 0,0 -3.145472,-0.08197 -3.145472,2.506299 0,2.58813 2.767232,2.692514 2.767232,2.692514 l 0.01982,12.646682 -13.392796,22.010757 c -2.2826948,4.414433 1.621626,5.249428 3.712203,5.249428 l 32.784995,0 c 2.090113,0 7.596299,-0.915671 4.552706,-5.418516 L 38.289266,31.656712"
       style="fill:#808080;fill-opacity:1;fill-rule:nonzero;stroke:none"/>
    <path
       d="m 33.205294,40.380155 1.805559,-2.005315 -0.137624,2.698247 2.69076,-0.137925 -1.999664,1.809271 1.999664,1.809272 -2.69076,-0.137937 0.137624,2.696438 -1.805559,-2.003506 -1.805556,2.101682 0.137312,-2.794614 -2.69076,0.137937 1.999964,-1.809272 -1.999964,-1.809271 2.69076,0.137925 -0.137312,-2.698247 1.805556,2.005315"
       style="fill:#808080;fill-opacity:1;fill-rule:nonzero;stroke:none"/>
    <path
       d="m 29.60968,6.9596411 1.622029,-1.7969912 -0.123449,2.4175077 2.417339,-0.1232829 -1.796821,1.6218584 1.796821,1.6216879 -2.417339,-0.123105 0.123449,2.417338 -1.622029,-1.796992 -1.62186,1.884214 0.123283,-2.50456 -2.417336,0.123105 1.796821,-1.6216879 -1.796821,-1.6218584 2.417336,0.1232829 -0.123283,-2.4175077 1.62186,1.7969912"
       style="fill:#808080;fill-opacity:1;fill-rule:nonzero;stroke:none"/>
  </g>
</svg>
