<?xml version="1.0"?>
<svg xmlns="http://www.w3.org/2000/svg" width="43" height="55">
<g style="fill:#888;stroke:none" transform="translate(-10.8,-5.1)">
<path d="m 19.9,47.7 7.5,-14.9 0,-13.9 8.1,0 -0,13.6 7.9,15.4 C 41.3,49.9 21.9,49.9 19.9,47.7 z M 38.2,31.6 38.2,19 c 0,0 2.4,-0.1 2.4,-2.8 0,-2.7 -2.8,-2.3 -2.8,-2.3 l -12.5,0 c 0,0 -3.1,-0 -3.1,2.5 0,2.5 2.7,2.6 2.7,2.6 l 0,12.6 -13.3,22 c -2.2,4.4 1.6,5.2 3.7,5.2 l 32.7,0 c 2,0 7.5,-0.9 4.5,-5.4 L 38.2,31.6"/>
<path d="m 33.2,40.3 1.8,-2 -0.1,2.6 2.6,-0.1 -1.9,1.8 1.9,1.8 -2.6,-0.1 0.1,2.6 -1.8,-2 -1.8,2.1 0.1,-2.7 -2.6,0.1 1.9,-1.8 -1.9,-1.8 2.6,0.1 -0.1,-2.6 1.8,2"/>
<path d="m 29.6,6.9 1.6,-1.7 -0.1,2.4 2.4,-0.1 -1.7,1.6 1.7,1.6 -2.4,-0.1 0.1,2.4 -1.6,-1.7 -1.6,1.8 0.1,-2.5 -2.4,0.1 1.7,-1.6 -1.7,-1.6 2.4,0.1 -0.1,-2.4 1.6,1.7"/>
</g>
</svg>
