<!-- Created with Inkscape (http://www.inkscape.org/) -->
<svg style="opacity:.32;-moz-opacity:.9" xmlns="http://www.w3.org/2000/svg" height="879" width="1125" version="1.1">
 <g fill="#222" transform="matrix(0.125,0,0,-0.125,0,879.5375)">
  <path d="M7073.43,397.648,9000,1153.26,9000,837.871,7073.43,397.648" fill-rule="nonzero" fill="#333"/>
 </g>
 <g fill="#222" transform="matrix(0.125,0,0,-0.125,0,879.5375)">
  <path d="m7073.43,397.648,0,0l1926.57,440.223v-226.101l-1926.57-214.122" fill-rule="nonzero" fill="#555"/>
 </g>
 <g fill="#222" transform="matrix(0.125,0,0,-0.125,0,879.5375)">
  <path d="m7072.79,397.91,0,0,1927.21,1749.78,0-95.72l-1927.21-1654.06" fill-rule="nonzero" fill="#222"/>
 </g>
 <g fill="#222" transform="matrix(0.125,0,0,-0.125,0,879.5375)">
  <path d="M7072.79,397.91,9000,3401.14,9000,2596.77,7072.79,397.91" fill-rule="nonzero" fill="#333"/>
 </g>
 <g fill="#222" transform="matrix(0.125,0,0,-0.125,0,879.5375)">
  <path d="m7072.79,397.91,0,0l1927.21,2198.86v-449.08l-1927.21-1749.78" fill-rule="nonzero" fill="#222"/>
 </g>
 <g fill="#222" transform="matrix(0.125,0,0,-0.125,0,879.5375)">
  <path d="m7072.79,397.91,0,0,1927.21,1284.95,0-363.05-1927.21-921.9" fill-rule="nonzero" fill="#222"/>
 </g>
 <g fill="#222" transform="matrix(0.125,0,0,-0.125,0,879.5375)">
  <path d="M7072.79,397.91,9000,2051.97,9000,1682.86,7072.79,397.91" fill-rule="nonzero" fill="#555"/>
 </g>
 <g fill="#222" transform="matrix(0.125,0,0,-0.125,0,879.5375)">
  <path d="m7072.03,398.301,0,0l1927.97,5107.709v-1601.91l-1927.97-3505.799" fill-rule="nonzero" fill="#333"/>
 </g>
 <g fill="#222" transform="matrix(0.125,0,0,-0.125,0,879.5375)">
  <path d="M7071.06,397.609,0,4692.7,0,4967.58,7071.06,397.609" fill-rule="nonzero" fill="#222"/>
 </g>
 <g fill="#222" transform="matrix(0.125,0,0,-0.125,0,879.5375)">
  <path d="M7071.06,397.609,0,2452.15,0,3656.8,7071.06,397.609" fill-rule="nonzero" fill="#333"/>
 </g>
 <g fill="#222" transform="matrix(0.125,0,0,-0.125,0,879.5375)">
  <path d="M7071.06,397.609,0,3656.8,0,4692.7,7071.06,397.609" fill-rule="nonzero" fill="#555"/>
 </g>
 <path fill-rule="nonzero" fill="#333" d="m883.8825,829.83637,0,0l-883.8825-571.24637v-165.6925l883.8825,736.93887"/>
 <g fill="#222" transform="matrix(0.125,0,0,-0.125,0,879.5375)">
  <path d="M7070.89,396.77,0,915.078,0,1941.15,7070.89,396.77" fill-rule="nonzero" fill="#555"/>
 </g>
 <g fill="#222" transform="matrix(0.125,0,0,-0.125,0,879.5375)">
  <path d="M0,56.75,0,915.078,7070.89,396.77,0,56.75" fill-rule="nonzero" fill="#333"/>
 </g>
 <g opacity="0.5" fill="#222" transform="matrix(0.13927722,0.09933283,0.15932942,-0.08683143,-163.52396,162.23721)">
  <path d="M7070.89,396.77,116.28611,896.20832-395.32375,1362.3287,3119.8751,5353.2149,4158.4696,4475.7698,7070.89,396.77" fill-rule="nonzero" fill="#222"/>
 </g>
 <path opacity="0.5" d="M887.10766,827.65582,39.079362,1.3598002,487.5227,0.53617749" fill-rule="nonzero" fill="#555"/>
 <path opacity="0.5" d="M882.45749,830.92697,322.40016,2.4327072,893.9456-0.58917443" fill-rule="nonzero" fill="#555"/>
 <path opacity="0.5" d="M885.05224,823.93571,955.89314,6.4326978,1133.8614,5.6218127,1131.7533,53.970615" fill-rule="nonzero" fill="#555
 "/>
 <path opacity="0.5" d="M883.05224,830.92696,639.54315-1.9637914,811.00679-0.58917634" fill-rule="nonzero" fill="#222"/>
</svg>
